<?xml version="1.0" encoding="UTF-8"?>
<svg id="Layer_1" xmlns="http://www.w3.org/2000/svg" version="1.1" viewBox="0 0 800 800">
  <!-- Generator: Adobe Illustrator 29.6.1, SVG Export Plug-In . SVG Version: 2.1.1 Build 9)  -->
  <defs>
    <style>
      .st0 {
        fill: #ff6120;
      }

      .st1 {
        fill: #051c39;
      }
    </style>
  </defs>
  <path class="st1" d="M475.89,480.72L269.33,66.5c-2.33-4.67-5.05-9.15-8.37-13.17-10.71-12.97-21.97-16.96-41.31-18.71-29.93-2.7-142.52-3.65-166.19,6.09-11.49,4.73-16.49,12.41-17.65,22.2-.89,7.53.83,15.14,4.2,21.93,109.78,221.34,218.2,444.45,333.23,663.07,9.41,17.89,32.22,25.01,49.31,14.21,2.31-1.46,4.46-3.2,6.41-5.2,6.65-6.88,104.93-212.79,130.75-259.41-30.66,4.31-61.96,10.08-83.81-16.78h-.01Z"/>
  <path class="st0" d="M739.34,38.5c-19.03-3.84-148.77-3.87-167.73,0-14.79,3.01-31.5,19.81-30.86,35.72.99,24.88,42.77,49.22,44.69,76.93,2.68,38.43-74.64,123-95.35,160.19-24.81,44.55-17.01,67,7.62,109.26,15.3,26.25,36.99,59.03,65.16,45.24,8.58-4.2,15.28-11.46,19.66-19.94,42.79-82.78,179.12-345.4,181.58-368.16,1.98-18.4-5.69-35.38-24.76-39.24h-.01Z"/>
</svg>