<?xml version="1.0" encoding="UTF-8"?>
<svg id="Layer_1" data-name="Layer 1" xmlns="http://www.w3.org/2000/svg" viewBox="0 0 498 498">
  <defs>
    <style>
      .cls-1 {
        fill: #051c39;
      }
    </style>
  </defs>
  <g>
    <path class="cls-1" d="M43.14,150.44c-.62,0-1.24-.07-1.86-.22-4.3-1.03-6.95-5.34-5.92-9.64,9.4-39.39,32.1-75.09,63.91-100.52C132.03,13.85,171.58,0,213.63,0c26.81,0,52.65,5.66,76.8,16.82.09.04.18.09.27.13l15.78,8.03c3.94,2,5.51,6.82,3.5,10.76s-6.82,5.51-10.76,3.5l-15.65-7.96c-22-10.14-45.53-15.28-69.96-15.28-38.38,0-74.47,12.64-104.38,36.55-29.04,23.22-49.76,55.8-58.34,91.74-.88,3.67-4.16,6.14-7.77,6.14Z"/>
    <path class="cls-1" d="M382.06,498H45.2c-2.29,0-4.48-.99-6-2.71-1.52-1.72-2.23-4.01-1.94-6.29,4.06-32.49,17.07-63.21,37.61-88.83,20.26-25.27,46.95-44.53,77.2-55.7,4.15-1.53,8.75.59,10.28,4.73,1.53,4.14-.59,8.75-4.73,10.28-27.52,10.16-51.81,27.69-70.26,50.7-16.78,20.93-28.03,45.6-32.83,71.81h318.22c-4.8-26.21-16.05-50.88-32.83-71.81-18.44-23-42.74-40.54-70.26-50.7-4.14-1.53-6.26-6.13-4.73-10.28,1.53-4.15,6.13-6.26,10.28-4.73,30.24,11.17,56.94,30.43,77.2,55.7,20.54,25.62,33.55,56.34,37.61,88.83.28,2.28-.42,4.57-1.94,6.29-1.52,1.72-3.7,2.71-6,2.71Z"/>
    <path class="cls-1" d="M91.77,285.71h-52.26c-21.78,0-39.51-17.72-39.51-39.51v-70.06c0-21.78,17.72-39.51,39.51-39.51h52.26c4.42,0,8,3.58,8,8s-3.58,8-8,8h-52.26c-12.96,0-23.51,10.55-23.51,23.51v70.06c0,12.96,10.54,23.51,23.51,23.51h52.26c4.42,0,8,3.58,8,8s-3.58,8-8,8Z"/>
    <path class="cls-1" d="M387.75,285.71h-52.58c-4.42,0-8-3.58-8-8s3.58-8,8-8h52.58c12.96,0,23.51-10.54,23.51-23.51v-52.09c0-4.42,3.58-8,8-8s8,3.58,8,8v52.09c0,21.78-17.72,39.51-39.51,39.51Z"/>
    <path class="cls-1" d="M343.62,363.83h-65.56c-4.42,0-8-3.58-8-8s3.58-8,8-8h65.56c15.13,0,27.45-12.31,27.45-27.45v-34.51c0-4.42,3.58-8,8-8s8,3.58,8,8v34.51c0,23.96-19.49,43.45-43.45,43.45Z"/>
    <path class="cls-1" d="M159.39,345.51c-1.05,0-2.13-.21-3.16-.65-53.49-22.99-88.05-75.47-88.05-133.68,0-80.2,65.25-145.45,145.45-145.45,27.18,0,53.7,7.55,76.68,21.83,3.75,2.33,4.9,7.27,2.57,11.02-2.33,3.75-7.26,4.9-11.02,2.57-20.44-12.7-44.03-19.42-68.23-19.42-71.38,0-129.45,58.07-129.45,129.45,0,51.81,30.76,98.52,78.37,118.98,4.06,1.75,5.94,6.45,4.19,10.51-1.3,3.03-4.25,4.84-7.35,4.84Z"/>
    <path class="cls-1" d="M268.3,345.32c-3.09,0-6.03-1.8-7.34-4.82-1.76-4.05.1-8.76,4.15-10.52,21.6-9.37,40.27-24.5,53.99-43.74,14-19.63,22.2-42.72,23.72-66.78.28-4.41,4.08-7.76,8.49-7.48,4.41.28,7.76,4.08,7.48,8.49-1.71,27.05-10.92,53-26.66,75.07-15.41,21.61-36.38,38.6-60.65,49.13-1.04.45-2.12.66-3.18.66Z"/>
    <path class="cls-1" d="M235.48,400.25h-43.7c-24.27,0-44.01-19.74-44.01-44.01s19.74-44.01,44.01-44.01h43.7c24.27,0,44.01,19.74,44.01,44.01,0,11.76-4.58,22.81-12.89,31.12-8.31,8.31-19.36,12.89-31.12,12.89ZM191.78,328.23c-15.44,0-28.01,12.56-28.01,28.01s12.57,28.01,28.01,28.01h43.7c7.48,0,14.51-2.91,19.8-8.2,5.29-5.29,8.2-12.32,8.2-19.81,0-15.44-12.57-28.01-28.01-28.01h-43.7Z"/>
    <path class="cls-1" d="M213.63,265.83c-13.58,0-26.27-5.4-35.74-15.21-3.07-3.18-2.98-8.24.2-11.31,3.18-3.07,8.25-2.98,11.31.2,6.42,6.65,15.03,10.32,24.23,10.32s17.81-3.66,24.23-10.32c3.07-3.18,8.13-3.27,11.31-.2s3.27,8.13.2,11.31c-9.46,9.81-22.16,15.21-35.74,15.21Z"/>
  </g>
  <g>
    <path class="cls-1" d="M286.19,169.73h-.03c-24.55-.1-52.27-10.38-72.53-26.59-21.62,17.27-51.77,27.76-77.25,26.48-18.32-.92-33.63-7.72-44.27-19.67-2.94-3.3-2.65-8.36.65-11.29,3.3-2.94,8.36-2.65,11.29.65,7.83,8.8,18.98,13.62,33.12,14.33,23.33,1.17,52.51-9.9,71.04-26.92,3.06-2.81,7.76-2.81,10.82,0,17.49,16.06,44.49,26.92,67.18,27.01,4.42.02,7.99,3.61,7.97,8.03-.02,4.41-3.6,7.97-8,7.97Z"/>
    <path class="cls-1" d="M350.53,227.08c-2.24,0-4.38-.94-5.9-2.6l-22.63-24.71h-6.38c-20.15,0-36.55-16.4-36.55-36.55V56.55c0-20.15,16.4-36.55,36.55-36.55h145.83c20.15,0,36.55,16.4,36.55,36.55v106.67c0,20.15-16.4,36.55-36.55,36.55h-82.4l-22.63,24.71c-1.52,1.65-3.66,2.6-5.9,2.6ZM315.62,36c-11.33,0-20.55,9.22-20.55,20.55v106.67c0,11.33,9.22,20.55,20.55,20.55h9.9c2.24,0,4.38.94,5.9,2.6l19.11,20.87,19.11-20.87c1.52-1.65,3.66-2.6,5.9-2.6h85.92c11.33,0,20.55-9.22,20.55-20.55V56.55c0-11.33-9.22-20.55-20.55-20.55h-145.83Z"/>
    <path class="cls-1" d="M419.62,117.84h-62.17c-4.42,0-8-3.58-8-8s3.58-8,8-8h62.17c4.42,0,8,3.58,8,8s-3.58,8-8,8Z"/>
  </g>
</svg>