<?xml version="1.0" encoding="UTF-8"?>
<svg id="Layer_1" data-name="Layer 1" xmlns="http://www.w3.org/2000/svg" viewBox="0 0 512 445.81">
  <defs>
    <style>
      .cls-1 {
        fill: #051c39;
      }
    </style>
  </defs>
  <circle class="cls-1" cx="138.94" cy="411.3" r="10"/>
  <path class="cls-1" d="M506.32,374.09l-41.64-41.17c-3.88-3.86-9.64-4.99-14.69-2.89-5.05,2.1-8.31,6.99-8.31,12.45v11.46h-50.68c36-38.77,56.26-89.74,56.26-143.28C447.26,94.5,352.76,0,236.6,0c-55.61,0-108.06,21.47-147.71,60.46-37.24,36.63-59.22,84.8-62.51,136.56h-12.47c-5.62,0-10.66,3.35-12.83,8.54-2.17,5.19-1.02,11.14,2.94,15.16l40.48,40.92c3.61,3.67,8.44,5.69,13.6,5.7h.02c5.04,0,9.78-1.93,13.37-5.45l46.03-41.5c.14-.13.28-.26.41-.39,3.84-3.88,4.97-9.65,2.86-14.69-2.1-5.04-6.98-8.29-12.44-8.29h-14.41c3.17-33.67,18.02-64.88,42.45-88.78,26.93-26.35,62.52-40.86,100.21-40.86,79.01,0,143.28,64.28,143.28,143.28s-64.28,143.28-143.28,143.28H41.76c-11.76,0-21.33,9.57-21.33,21.33v24.83c0,11.76,9.57,21.33,21.33,21.33h52.27c5.53,0,10.02-4.49,10.02-10.02s-4.49-10.02-10.02-10.02h-52.27c-.71,0-1.29-.58-1.29-1.29v-24.83c0-.71.58-1.29,1.29-1.29h194.84c90.06,0,163.32-73.27,163.32-163.32S326.66,47.33,236.6,47.33c-42.96,0-83.52,16.54-114.22,46.57-30.65,29.99-48.08,70.08-49.07,112.9-.06,2.7.97,5.31,2.85,7.24,1.89,1.93,4.47,3.02,7.17,3.02h7.96s-33.14,29.88-33.14,29.88l-29.56-29.88h7.41s0,0,0,0c5.46,0,9.92-4.38,10.02-9.84.88-50.19,21.1-97.24,56.92-132.47,35.87-35.28,83.34-54.71,133.65-54.71,105.11,0,190.62,85.51,190.62,190.62,0,56.22-24.65,109.31-67.64,145.65-34.31,29-77.99,44.97-122.98,44.97-.51,0-52.75.12-52.75.12-5.53,0-10.02,4.49-10.02,10.02s4.49,10.02,10.02,10.02h257.83v10.46c0,5.62,3.36,10.66,8.55,12.83,1.74.73,3.57,1.08,5.38,1.08,3.59,0,7.11-1.39,9.77-4.02l40.92-40.49c3.67-3.61,5.69-8.44,5.69-13.59,0-5.16-2.01-9.99-5.68-13.62ZM461.72,417.22v-5.8c0-5.53-4.49-10.02-10.02-10.02h-125.7c15.53-7.27,30.21-16.46,43.65-27.42h82.05c5.53,0,10.02-4.49,10.02-10.02v-5.79l29.85,29.52-29.85,29.53Z"/>
  <path class="cls-1" d="M341.16,210.66c0-55.25-44.95-100.2-100.2-100.2s-100.2,44.95-100.2,100.2,44.95,100.2,100.2,100.2,100.2-44.95,100.2-100.2h0ZM160.81,210.66c0-44.2,35.96-80.16,80.16-80.16s80.16,35.96,80.16,80.16-35.96,80.16-80.16,80.16-80.16-35.96-80.16-80.16h0Z"/>
  <path class="cls-1" d="M284.66,175.73c-4.21-3.59-10.53-3.09-14.13,1.12l-41.01,48.07-20.12-22.71c-3.67-4.14-10-4.52-14.14-.85s-4.52,10-.85,14.14l27.77,31.33c1.9,2.15,4.63,3.38,7.5,3.38h.09c2.9-.03,5.65-1.31,7.53-3.52l48.49-56.83c3.59-4.21,3.09-10.53-1.12-14.13h0Z"/>
</svg>