<svg id="Layer_1" viewBox="0 0 128 128" xmlns="http://www.w3.org/2000/svg" data-name="Layer 1"><path d="m116 36.21387a6 6 0 1 0 6-6c-.15021 0-.29742.0116-.44489.02252l-2.617-6.80255a10.00862 10.00862 0 1 0 -13.8808-3.2334l-18.29331 18.29645a18.946 18.946 0 0 0 -29.23792 5.999l-15.26613-5.22189a9.69979 9.69979 0 0 0 -.69757-5.37732l14.54816-9.48956a6.01206 6.01206 0 1 0 -2.359-3.23645l-14.47926 9.44469a9.97792 9.97792 0 0 0 -4.77228-2.54499v-10.43994a6 6 0 1 0 -4 0v10.38989a9.99748 9.99748 0 1 0 10.40167 15.01728l15.22113 5.2064a18.72517 18.72517 0 0 0 3.24158 16.182l-7.98016 7.21625a9.957 9.957 0 0 0 -14.13013 2.33539l-10.8338-5.66624a9.97341 9.97341 0 0 0 -12.7049-12.75757l-3.71515-8.09351a5.98988 5.98988 0 1 0 -4.00024 1.54068c.101 0 .19934-.01019.29913-.01514l3.9635 8.63446a9.985 9.985 0 1 0 14.08912 14.12321l11.31195 5.91647a9.9445 9.9445 0 0 0 1.20251 7.11041l-7.66766 6.93359a5.99674 5.99674 0 1 0 2.70045 2.95072l7.65436-6.92157a9.98148 9.98148 0 0 0 14.51091-13.12182l8.04517-7.275a19.00682 19.00682 0 0 0 7.56293 4.00275v-2.73556a10.2698 10.2698 0 0 1 .10944-1.39087 15.01989 15.01989 0 1 1 16.51068-4.989 9.519 9.519 0 0 1 2.07351 3.70842 19.15666 19.15666 0 0 0 3.60278-5.53564l12.559 3.14032a9.99921 9.99921 0 1 0 .59039-3.976l-11.96345-2.99135a18.85216 18.85216 0 0 0 -3.6322-15.17377l18.26007-18.26324a9.77648 9.77648 0 0 0 7.41846 1.72748l2.69031 6.99316a5.97807 5.97807 0 0 0 -1.89136 4.36084zm-112 6.78713a2 2 0 1 1 2 2 2.0025 2.0025 0 0 1 -2-2zm13 27.9873a6 6 0 1 1 6-6 6.00656 6.00656 0 0 1 -6 5.99998zm42.5-53.5283a2.00049 2.00049 0 1 1 -2 2.001 2.0025 2.0025 0 0 1 2-2.001zm-27-7.48047a2.00049 2.00049 0 1 1 -2 2.001 2.0025 2.0025 0 0 1 2-2.00104zm-.125 33.86133a6.00147 6.00147 0 1 1 6-6.002 6.0076 6.0076 0 0 1 -6 6.00196zm-6 55.15527a2.00049 2.00049 0 1 1 2-2 2.00229 2.00229 0 0 1 -2 1.99996zm19.0835-13.31449a6.00147 6.00147 0 1 1 6-6.002 6.0076 6.0076 0 0 1 -6 6.002zm78.5415-49.46777a2 2 0 1 1 -2-2 2.00229 2.00229 0 0 1 2 2zm-9.5 20.77441a6.00147 6.00147 0 1 1 -6 6.001 6.0074 6.0074 0 0 1 6-6.001zm-6.9165-41.98728a6 6 0 1 1 6 6.002 6.0074 6.0074 0 0 1 -6-6.002z"/><path d="m101.28418 83.46484a5.32618 5.32618 0 0 0 -2.2522.42877 5.69262 5.69262 0 0 0 -6.9295-2.97906 5.6873 5.6873 0 0 0 -7.38116-4.65106l.02722-7.61993a5.73913 5.73913 0 0 0 -5.65234-5.64356 5.518 5.518 0 0 0 -5.42384 5.60352v23.21283c-2.32465-2.91058-5.63867-5.52545-9.48486-4.05658a4.55522 4.55522 0 0 0 -2.82666 2.73242c-.99756 2.60156.03857 6.11035 3.167 10.72363l11.45068 18.7998a6.0861 6.0861 0 0 0 5.24121 2.98438h17.09427a6.028 6.028 0 0 0 5.87158-4.5127 84.5288 84.5288 0 0 0 2.76465-18.47461l.00018-.04059c.00269-.18054.04962-10.85785.04962-10.85785a5.692 5.692 0 0 0 -5.71585-5.64941zm-.97559 34.03613a2.031 2.031 0 0 1 -1.99459 1.49903h-17.09427a2.088 2.088 0 0 1 -1.80762-1.03516s-11.52881-18.92871-11.54785-18.95703c-3.16464-4.6537-2.93756-6.54639-2.792-7.01642a.73169.73169 0 0 1 .49615-.47674c2.86084-1.15039 6.59277 4.67871 7.95264 7.67872.419.92607 1.02538 1.81054 2.15137 1.81054a2.0001 2.0001 0 0 0 2-2v-30.39355a1.51027 1.51027 0 0 1 1.43058-1.61036 1.663 1.663 0 0 1 1.64553 1.627l-.1084 30.37014a2.04672 2.04672 0 0 0 1.78074 1.99431 2.07907 2.07907 0 0 0 2.32765-1.98066l.062-17.39453a1.67181 1.67181 0 0 1 3.34277.0166l-.05759 17.36421a2.029 2.029 0 0 0 4.05762.01563l.05469-12.79a1.67675 1.67675 0 0 1 3.3501.01563l-.07373 12.75684a2.01152 2.01152 0 0 0 4.02295.0166l.04016-10.09535a1.73987 1.73987 0 0 1 3.45251.18319l-.04956 10.84857a80.36431 80.36431 0 0 1 -2.64185 17.55282z"/><circle cx="17" cy="64.988" r="2"/><circle cx="45.458" cy="79.68" r="2"/><circle cx="32.375" cy="37.839" r="2"/><circle cx="113.583" cy="15.001" r="2"/><circle cx="114.5" cy="62.989" r="2"/><path d="m70.65722 60.59781a2.95442 2.95442 0 0 0 3.09864-.18961l6.9751-4.98242a3 3 0 0 0 .00146-4.88281l-6.97705-4.98437a3.0002 3.0002 0 0 0 -4.74365 2.4414v9.96774a2.95549 2.95549 0 0 0 1.6455 2.63007zm2.3545-10.65445 4.25635 3.04-4.25635 3.041z"/></svg>