<svg id="Layer_1" enable-background="new 0 0 512 512" height="512" viewBox="0 0 512 512" width="512" xmlns="http://www.w3.org/2000/svg"><path d="m476.73 201.746c-10.273-7.052-22.749-13.551-37.008-19.322l4.15-1.403c7.849-2.653 12.06-11.166 9.406-19.014-2.653-7.85-11.172-12.057-19.014-9.406l-47.366 16.014c-4.473 1.513-7.973 5.042-9.446 9.527-1.475 4.485-.75 9.403 1.954 13.273l28.637 40.987c2.917 4.176 7.575 6.41 12.309 6.41 2.967 0 5.963-.877 8.578-2.705 6.791-4.744 8.45-14.096 3.705-20.887l-3.237-4.634c11.794 4.828 22.018 10.168 30.353 15.89 14.348 9.85 22.249 20.388 22.249 29.674 0 15.859-23.261 34.152-60.704 47.739-19.406 7.042-41.698 12.686-65.943 16.793 2.046-20.855 3.102-42.56 3.102-64.685 0-66.074-9.416-128.412-26.515-175.529-8.651-23.841-18.918-42.782-30.515-56.299-9.46-11.024-25.021-24.169-45.425-24.169s-35.965 13.145-45.426 24.172c-11.597 13.517-21.863 32.458-30.514 56.299-8.503 23.431-15.106 50.626-19.596 80.173-29.478 4.489-56.611 11.083-79.994 19.568-23.841 8.651-42.782 18.918-56.299 30.515-11.026 9.461-24.171 25.021-24.171 45.425s13.145 35.965 24.172 45.426c13.517 11.597 32.458 21.863 56.299 30.515 47.117 17.099 109.455 26.515 175.529 26.515 22.06 0 43.704-1.05 64.504-3.084-4.104 24.179-9.738 46.413-16.763 65.773-13.589 37.442-31.882 60.703-47.741 60.703-9.118 0-19.59-8.239-29.485-23.2-5.553-8.395-10.76-18.61-15.501-30.341l3.193 2.354c6.666 4.913 16.059 3.495 20.975-3.174 4.915-6.668 3.494-16.059-3.174-20.975l-40.246-29.668c-3.802-2.801-8.7-3.65-13.219-2.291-4.521 1.359-8.14 4.769-9.765 9.201l-17.213 46.943c-2.852 7.778 1.142 16.396 8.919 19.247 1.704.625 3.447.921 5.163.921 6.113 0 11.856-3.766 14.084-9.84l1.925-5.249c18.846 48.877 44.977 76.072 74.344 76.072 20.404 0 35.965-13.145 45.426-24.172 11.597-13.517 21.863-32.458 30.515-56.299 8.473-23.348 15.059-50.435 19.548-79.861 29.495-4.49 56.645-11.085 80.041-19.576 23.841-8.651 42.782-18.918 56.299-30.515 11.026-9.46 24.171-25.02 24.171-45.425 0-13.774-6.119-34.394-35.27-54.406zm-220.73 126.861c-62.673 0-121.376-8.777-165.296-24.716-37.443-13.586-60.704-31.879-60.704-47.739s23.261-34.152 60.704-47.739c19.398-7.04 41.68-12.682 65.914-16.788-2.026 20.76-3.072 42.36-3.072 64.375 0 11.487.289 23.031.86 34.313.418 8.274 7.454 14.677 15.738 14.223 8.273-.418 14.642-7.465 14.223-15.738-.545-10.778-.821-21.813-.821-32.797 0-23.633 1.248-46.702 3.658-68.626 21.975-2.422 45.102-3.677 68.796-3.677 7.774 0 15.608.139 23.284.412 8.282.291 15.229-6.176 15.524-14.456.295-8.278-6.177-15.229-14.456-15.524-8.03-.286-16.224-.432-24.353-.432-22.078 0-43.74 1.052-64.555 3.09 4.109-24.299 9.76-46.64 16.816-66.083 13.589-37.444 31.881-60.705 47.74-60.705s34.152 23.261 47.74 60.704c15.938 43.92 24.715 102.623 24.715 165.296 0 23.744-1.26 46.918-3.692 68.934-21.965 2.42-45.081 3.673-68.763 3.673z"/></svg>