<?xml version="1.0" encoding="UTF-8"?>
<svg id="Layer_1" data-name="Layer 1" xmlns="http://www.w3.org/2000/svg" viewBox="0 0 502.34 510.01">
  <defs>
    <style>
      .cls-1 {
        fill: #051c39;
      }
    </style>
  </defs>
  <path class="cls-1" d="M190.77,440.91c-.92-3.43-3.12-6.3-6.2-8.08-3.08-1.78-6.67-2.25-10.1-1.33l-.96.26,3.54-27.11c1.84-14.07-1.61-26.92-10.27-38.18-.22-.28-.46-.55-.71-.8l-66.06-65.54c-9.7-9.62-23.71-12.32-35.82-8.11v-88.98c0-8.55-3.35-16.6-9.42-22.67-6.08-6.07-14.13-9.42-22.67-9.42h0c-17.7,0-32.1,14.4-32.1,32.1v148.52c0,13.44,5.02,25.66,14.93,36.32l35.93,38.65c9.34,10.05,12.7,20.46,11.17,35.12l-3.16.85c-7.09,1.9-11.31,9.21-9.41,16.3l5.72,21.36c.92,3.43,3.12,6.3,6.2,8.08,2.06,1.19,4.33,1.79,6.64,1.79,1.15,0,2.31-.15,3.46-.46l115.6-30.98c7.09-1.9,11.31-9.21,9.41-16.3l-5.72-21.37ZM178.61,446.95s0,0-.01,0h.01ZM62.58,415.61l-35.93-38.65c-7.16-7.7-10.65-16.02-10.65-25.42v-148.52c0-8.87,7.22-16.09,16.1-16.1,4.27,0,8.31,1.68,11.36,4.73,3.05,3.05,4.74,7.09,4.74,11.36v100.51c-10.55,13.63-9.53,33.35,3.01,45.79l35.29,35.01c3.14,3.11,8.2,3.09,11.31-.05,3.11-3.14,3.09-8.2-.04-11.31l-35.29-35.01c-7.3-7.24-7.35-19.08-.1-26.38,7.25-7.3,19.08-7.35,26.38-.1l65.67,65.15c5.83,7.77,8.04,16.27,6.78,25.95l-4.4,33.67-78.44,21.02c.47-16.44-4.57-29.59-15.77-41.64ZM69.94,493.39l-4.33-16.16,110.4-29.58,4.33,16.16-110.4,29.58ZM470.24,170.93h0c-8.54,0-16.6,3.35-22.67,9.42-6.08,6.07-9.42,14.13-9.42,22.67v88.98c-12.12-4.2-26.12-1.51-35.82,8.11l-66.06,65.54c-.25.25-.49.52-.71.8-8.65,11.26-12.11,24.11-10.27,38.18l3.54,27.11-.95-.26c-3.43-.92-7.01-.45-10.1,1.33s-5.29,4.65-6.2,8.08l-5.73,21.37c-1.9,7.09,2.32,14.4,9.41,16.3l115.6,30.98c1.14.31,2.3.46,3.46.46,2.31,0,4.58-.61,6.64-1.79,3.08-1.78,5.29-4.65,6.2-8.07l5.73-21.37c1.9-7.09-2.32-14.4-9.41-16.3l-3.16-.85c-1.53-14.67,1.83-25.07,11.17-35.12l35.93-38.65c9.9-10.65,14.93-22.87,14.93-36.32v-148.52c0-17.7-14.4-32.09-32.1-32.1h0ZM323.73,446.95h.01s0,0-.01,0t0,0ZM432.4,493.39l-110.4-29.58,4.33-16.16,110.4,29.58-4.33,16.16ZM486.33,351.54c0,9.4-3.48,17.72-10.65,25.42l-35.93,38.65c-11.2,12.05-16.25,25.2-15.77,41.64l-78.44-21.02-4.4-33.67c-1.27-9.68.95-18.17,6.78-25.95l65.67-65.15c7.3-7.24,19.14-7.2,26.38.1,7.24,7.3,7.2,19.14-.1,26.38l-35.29,35.01c-3.14,3.11-3.16,8.18-.04,11.31,3.11,3.14,8.18,3.16,11.31.05l35.29-35.01c12.54-12.44,13.55-32.16,3.01-45.79v-100.51c0-4.27,1.68-8.31,4.74-11.36,3.05-3.05,7.09-4.73,11.36-4.73h0c8.88,0,16.1,7.22,16.1,16.1v148.52ZM423.08,198.1V66.7c0-2.75-1.41-5.3-3.74-6.77C353.54,18.48,301.68,0,251.17,0s-102.38,18.48-168.17,59.93c-2.33,1.47-3.74,4.02-3.74,6.77v131.4c0,51.06,22.83,95.59,64.3,125.4l102.94,73.99c1.4,1,3.03,1.5,4.67,1.5s3.27-.5,4.67-1.5l102.94-73.99c41.46-29.8,64.3-74.33,64.3-125.39h0ZM251.17,381.13l-98.28-70.63c-37.17-26.71-57.63-66.63-57.63-112.4v-126.97C214.17-2.83,288.17-2.83,407.08,71.13v126.97c0,45.77-20.47,85.69-57.64,112.4l-98.27,70.63ZM395.08,82.34c0-2.81-1.48-5.42-3.89-6.86-54.71-32.8-97.89-47.43-140.02-47.43,0,0,0,0,0,0-42.13,0-85.32,14.63-140.02,47.43-2.41,1.45-3.89,4.05-3.89,6.86v115.75c0,42.41,18.2,77.91,52.64,102.66l86.6,62.24c1.4,1,3.03,1.5,4.67,1.5s3.27-.5,4.67-1.5l86.6-62.24c34.44-24.75,52.64-60.25,52.64-102.66v-115.75h0ZM379.08,198.1c0,37.04-15.9,68.05-45.98,89.67l-81.93,58.89-81.93-58.89c-30.08-21.62-45.98-52.62-45.98-89.67v-111.2c97.42-57.48,158.39-57.48,255.82,0v111.2ZM189.03,114.55v20.49h-.35c-13.68,0-24.81,11.13-24.81,24.81v101.68c0,13.68,11.13,24.81,24.81,24.81h124.96c13.68,0,24.81-11.13,24.81-24.81v-101.68c0-13.68-11.13-24.81-24.81-24.81h-.34v-20.49c0-34.26-27.87-62.13-62.14-62.13s-62.13,27.87-62.13,62.13h0ZM322.46,159.85v101.68c0,4.86-3.95,8.81-8.81,8.81h-124.96c-4.86,0-8.81-3.95-8.81-8.81v-101.68c0-4.86,3.95-8.81,8.81-8.81h124.96c4.86,0,8.81,3.95,8.81,8.81h0ZM276.62,135.04h-50.91v-20.49c0-14.04,11.42-25.46,25.45-25.46s25.45,11.42,25.45,25.46v20.49ZM251.17,68.41c25.44,0,46.14,20.7,46.14,46.14v20.49h-4.68v-20.49c0-22.86-18.6-41.46-41.45-41.46s-41.46,18.6-41.46,41.46v20.49h-4.68v-20.49c0-25.44,20.7-46.13,46.13-46.13h0ZM233,218.23v14.54c0,10.02,8.15,18.17,18.17,18.17s18.17-8.15,18.17-18.17v-14.54c5.81-5.14,9.17-12.5,9.17-20.45,0-15.08-12.27-27.35-27.35-27.35s-27.35,12.27-27.35,27.35c0,7.94,3.36,15.3,9.17,20.45h0ZM251.17,186.44c6.26,0,11.35,5.09,11.35,11.35,0,3.96-2.01,7.57-5.39,9.66-2.36,1.46-3.79,4.03-3.79,6.8v18.53c0,1.18-.99,2.17-2.17,2.17s-2.17-.99-2.17-2.17v-18.53c0-2.77-1.43-5.34-3.79-6.8-3.37-2.09-5.39-5.7-5.39-9.66,0-6.26,5.09-11.35,11.35-11.35h0Z"/>
</svg>