<?xml version="1.0" encoding="UTF-8"?>
<svg id="Layer_1" data-name="Layer 1" xmlns="http://www.w3.org/2000/svg" viewBox="0 0 2461.92 751.92">
  <defs>
    <style>
      .cls-1 {
        fill: #ff6120;
      }

      .cls-2 {
        fill: #f2f2f2;
      }
    </style>
  </defs>
  <path class="cls-2" d="M916.79,11.36l87.82,287.34L1100.35,11.36h94.18l-138.82,395.91c-6.42,7.72-80.35.56-95.47,3.34L821.02,11.36h95.77Z"/>
  <path class="cls-2" d="M2461.92,410.41h-83v-44.69l-6.6,7.48c-26.02,29.48-63.68,46.82-102.98,45.36-53.82-2-98.83-37.17-91.51-108.67,9.72-94.91,131.7-74.54,193.22-94.08,4.13-1.31,4.8,2.25,4.84-4.88.25-47.32-49.52-56.95-86.41-44.8-19.67,6.48-23.19,23.41-31.89,28.82-10.12,6.3-60.78-12.09-76.61-8.03-.33-3.53,0-6.91.76-10.4,26.46-123.1,280.19-94.26,280.19,8.82v225.06ZM2375.72,266.75c-24.87,10.66-107.11,10.56-114.06,40.67-14.46,62.65,71.53,56.14,103.03,26.51,2.51-2.36,11.03-12.45,11.03-14.51v-52.67Z"/>
  <path class="cls-2" d="M1453.11,410.41h-83l-1.58-41.49c-40.18,72.42-186.06,68.16-196.37-23.94-13.69-122.3,109.45-113.6,194.4-129.64,11.71-55.93-63.23-63.18-96.5-40.65-8.92,6.04-11.34,15.22-16.24,18.86-11.3,8.41-58.78-8.5-75.27-6.61,4.32-104.15,179.28-110.77,239.16-61.96,11.74,9.57,35.4,42.65,35.4,57.18v228.26ZM1366.92,266.75c-23.53,12.43-101.74,10.79-110.3,38.14-19.48,62.22,68.04,60.72,99.26,29.03,2.53-2.57,11.04-12.26,11.04-14.5v-52.67Z"/>
  <path class="cls-2" d="M1749.35,98.49c125.4-13.5,203.67,54.23,192.15,182.57-15.37,171.27-272.52,184.84-315.8,38.17-29.7-100.65,9.96-208.5,123.66-220.74ZM1774.98,162.25c-101.86,6.59-93.61,193.12,5.36,193.85,102.1.75,104.43-200.95-5.36-193.85Z"/>
  <polygon class="cls-2" points="1584 11.36 1579.21 410.41 1494.62 410.41 1494.62 11.36 1584 11.36"/>
  <path class="cls-2" d="M2158.64,97.55v79.81c-36.96-3.51-75.82,2.84-91.78,40.7-1.46,3.47-7.18,22.65-7.18,24.74v167.6h-86.2V103.94h83v60.66l13.19-26.36c9.58-19.15,26.92-33.64,47.79-38.44,13.03-3,27.06-3.26,41.18-2.24Z"/>
  <path class="cls-1" d="M1105.14,464.68v54.27h-134.08v67.04h124.5v51.08h-124.5v105.35c-13.28.41-63.85.05-63.85.05v-277.79h197.93Z"/>
  <path class="cls-1" d="M2455.53,656.22h-153.24c.12,41.26,39.2,63.08,75.7,45.37,12.67-6.15,20.4-26.13,22.11-26.48,10.71-2.18,35.91,11.98,49.05,9.85-10.63,63.05-97,78.53-149.1,58.09-85.9-33.71-78.62-202.93,35.62-211.47,83.73-6.26,125.51,42.98,119.85,124.64ZM2394.88,621.11c1.04-65.49-89.3-63.53-92.58,0h92.58Z"/>
  <path class="cls-1" d="M1698.93,745.61l-54.29.02c-.29-7.95.43-16.05.02-24.02-.19-3.6,2.08-8.76-3.15-7.89-18.26,52.89-121.13,50.17-135.13-3.81-14.6-56.32,17.07-78.98,67.27-87.98,10.86-1.95,63.3-3.09,64.79-9.32,8.4-35.09-34.8-45.14-59.96-33.73-8.94,4.06-17.19,19.49-19.07,19.96-13.5,3.38-37.32-7.3-52.03-6.47,9.89-79.77,160.63-80.75,185.89-15.07,1.04,2.7,5.66,18.68,5.66,19.87v148.45ZM1641.45,649.85c-18.45,7.72-75.16.89-79.71,23.99-6.41,32.52,15.61,36.89,42.74,33.17,31.04-4.25,41.43-28.11,36.97-57.16Z"/>
  <path class="cls-1" d="M1255.19,534.91h57.46v44.69l17.91-25.19c35.85-35.23,101.39-32.56,122.15,17.62,1.39,3.35,6.8,17.04,6.8,18.74v150.04c0,.34-4.45,4.79-4.79,4.79h-51.08c-.34,0-4.79-4.45-4.79-4.79v-134.08c0-17.78-26.72-28.75-42.75-26.93-14.87,1.68-40.25,21.87-40.25,36.51v124.5c0,.34-4.45,4.79-4.79,4.79h-51.08c-.34,0-4.79-4.45-4.79-4.79v-205.91Z"/>
  <path class="cls-1" d="M1954.32,742.42h-57.46v-122.91c0-3.8-7.1-24.5-10.01-28.3-15.64-20.41-54.67-12.61-68.04,7.71-19.28,29.3-10.78,108.4-8.14,143.5h-60.66v-207.51h57.46v44.69l19.19-27.1c32.35-30.49,92.96-29.78,117.56,10.06,2.48,4.02,10.1,21.8,10.1,25.02v154.83Z"/>
  <path class="cls-1" d="M2206.52,614.72h-52.67c-2.7,0-8.54-25.84-24.29-33.13-97.5-45.18-92.27,166.82,2.57,116.76,19.07-10.07,18.15-32.55,20.12-32.55h57.46c-4.04,73.13-85.23,99.86-147.57,78.94-91.63-30.75-85.05-198.16,19.11-212.19,63.37-8.54,119.59,12.24,125.28,82.18Z"/>
  <rect class="cls-1" x="1140.26" y="534.91" width="57.46" height="207.51"/>
  <path class="cls-1" d="M1155.31,452.59c30.27-6.8,52.58,5.05,44.91,38.55-5.68,24.83-48.57,24.65-59.55,3.46-7.99-15.42-3.81-37.87,14.63-42.01Z"/>
  <g>
    <path class="cls-2" d="M440.31,447.93L233.75,33.71c-2.33-4.67-5.05-9.15-8.37-13.17-10.71-12.97-21.97-16.96-41.31-18.71C154.14-.87,41.55-1.82,17.88,7.92,6.39,12.65,1.39,20.33.23,30.12c-.89,7.53.83,15.14,4.2,21.93,109.78,221.34,218.2,444.45,333.23,663.07,9.41,17.89,32.22,25.01,49.31,14.21,2.31-1.46,4.46-3.2,6.41-5.2,6.65-6.88,104.93-212.79,130.75-259.41-30.66,4.31-61.96,10.08-83.81-16.78Z"/>
    <path class="cls-1" d="M703.76,5.71c-19.03-3.84-148.77-3.87-167.73,0-14.79,3.01-31.5,19.81-30.86,35.72.99,24.88,42.77,49.22,44.69,76.93,2.68,38.43-74.64,123-95.35,160.19-24.81,44.55-17.01,67,7.62,109.26,15.3,26.25,36.99,59.03,65.16,45.24,8.58-4.2,15.28-11.46,19.66-19.94,42.79-82.78,179.12-345.4,181.58-368.16,1.98-18.4-5.69-35.38-24.76-39.24Z"/>
  </g>
</svg>