<?xml version="1.0" encoding="UTF-8"?>
<svg id="Layer_1" data-name="Layer 1" xmlns="http://www.w3.org/2000/svg" viewBox="0 0 124.83 124.95">
  <defs>
    <style>
      .cls-1 {
        fill: #f4f4f3;
      }
    </style>
  </defs>
  <path class="cls-1" d="M106.39,18.15C94.65,6.45,79.03,0,62.41,0,45.83,0,30.19,6.44,18.38,18.13,6.54,29.84.02,45.41,0,61.9v.02h0c0,9.99,2.62,20.06,7.6,29.26L.17,124.95l34.17-7.77c8.65,4.36,18.31,6.66,28.05,6.66h.02c16.58,0,32.22-6.44,44.04-18.13,11.85-11.72,18.37-27.26,18.38-43.77,0-16.39-6.55-31.94-18.45-43.8ZM62.41,114.09h-.02c-8.74,0-17.41-2.2-25.06-6.35l-1.62-.88-22.72,5.17,4.94-22.43-.95-1.64c-4.73-8.16-7.23-17.16-7.23-26.04.02-28.75,23.64-52.17,52.66-52.17,14.02,0,27.19,5.44,37.09,15.3,10.05,10.01,15.58,23.11,15.58,36.89-.01,28.76-23.64,52.15-52.67,52.15Z"/>
  <path class="cls-1" d="M45.43,34.62h-2.74c-.95,0-2.5.36-3.81,1.78-1.31,1.42-5,4.87-5,11.87s5.12,13.77,5.83,14.72c.71.95,9.88,15.78,24.39,21.48,12.06,4.74,14.52,3.8,17.13,3.56,2.62-.24,8.45-3.44,9.64-6.76s1.19-6.17.83-6.77c-.36-.59-1.31-.95-2.74-1.66-1.43-.71-8.43-4.21-9.73-4.69-1.31-.47-2.26-.71-3.21.71-.95,1.42-3.76,4.71-4.59,5.66-.83.95-1.67,1.07-3.09.36-1.43-.71-5.98-2.24-11.43-7.09-4.25-3.77-7.19-8.58-8.02-10.01-.83-1.42-.09-2.19.63-2.9.64-.64,1.51-1.51,2.22-2.34.71-.83.92-1.42,1.39-2.37.48-.95.24-1.78-.12-2.49-.36-.71-3.1-7.75-4.37-10.56h0c-1.07-2.37-2.2-2.45-3.21-2.49Z"/>
</svg>